<?xml version="1.0" encoding="utf-8"?>
<!-- Generator: Adobe Illustrator 19.1.1, SVG Export Plug-In . SVG Version: 6.00 Build 0)  -->
<svg version="1.1" xmlns="http://www.w3.org/2000/svg" xmlns:xlink="http://www.w3.org/1999/xlink" x="0px" y="0px"
	 viewBox="0 0 135.1 226.2" style="enable-background:new 0 0 135.1 226.2;" xml:space="preserve">
<style type="text/css">
	.st0{fill:#FCB82E;}
	.st1{fill:#1C1A26;}
	.st2{fill:#F58A28;}
	.st3{fill:#FFFAEF;}
	.st4{fill:#FF5964;}
	.st5{fill:#B7424E;}
	.st6{fill:#45B1E8;}
	.st7{fill:#399AB7;}
</style>
<g id="BACKGROUND">
</g>
<g id="OBJECT">
	<g>
		
			<ellipse transform="matrix(0.999 4.568761e-002 -4.568761e-002 0.999 1.8909 -4.5481)" class="st0" cx="100.4" cy="39.1" rx="34.7" ry="39.1"/>
		<path class="st1" d="M121.4,162.4C121.3,162.4,121.3,162.4,121.4,162.4c-9.6-1.7-15.3-5.5-17.1-11.5c-3-10,6.1-23,14.8-31.1
			c15-14.1-0.2-42.3-0.3-42.6c-0.2-0.3,0-0.6,0.2-0.8c0.3-0.2,0.6-0.1,0.8,0.2c0.2,0.3,15.8,29.3,0.1,44c-8.5,7.9-17.3,20.5-14.5,30
			c1.6,5.5,7.1,9.1,16.1,10.7c0.3,0.1,0.5,0.3,0.5,0.7C121.9,162.2,121.6,162.4,121.4,162.4z"/>
		<polygon class="st2" points="116.6,66.9 115.1,87.2 129.6,80.9 		"/>
		<path class="st2" d="M72.1,17c0,0-4,22.8,12.2,36.4c8.3,6.9,23.1,16.6,44,8.8c0,0-17.6,28.5-46.6,10S72.1,17,72.1,17z"/>
		<path class="st3" d="M95.2,4.8c0,0,30.3,7.4,32.2,39.9C127.4,44.7,137.7,0.4,95.2,4.8z"/>
	</g>
	<g>
		
			<ellipse transform="matrix(0.999 4.568761e-002 -4.568761e-002 0.999 2.6825 -1.8164)" class="st4" cx="41.1" cy="57.8" rx="41.1" ry="47.8"/>
		<path class="st1" d="M36.6,191.5C36.6,191.5,36.6,191.5,36.6,191.5C27,189.9,21.3,186,19.5,180c-3-10,6.1-23,14.8-31.1
			c15-14.1-0.2-42.3-0.3-42.6c-0.2-0.3,0-0.6,0.2-0.8c0.3-0.1,0.6-0.1,0.8,0.2c0.2,0.3,15.8,29.3,0.1,44c-8.5,7.9-17.3,20.5-14.5,30
			c1.6,5.5,7.1,9.1,16.1,10.7c0.3,0.1,0.5,0.3,0.5,0.7C37.1,191.4,36.9,191.5,36.6,191.5z"/>
		<polygon class="st5" points="34.8,95.5 27.1,114.3 42.9,112.8 		"/>
		<path class="st5" d="M11,25.8c0,0-17.6,69.7,50.1,73.4c0,0-23.6,15.7-43.8-2S-5.8,46.8,11,25.8z"/>
		<path class="st3" d="M28.3,17.2c0,0,34.4-4.8,42.2,36.2C70.6,53.4,76.1,3.2,28.3,17.2z"/>
	</g>
	<g>
		<path class="st1" d="M79.1,226.2C79,226.2,79,226.2,79.1,226.2c-9.6-1.7-15.3-5.5-17.1-11.5c-3-10,6.1-23,14.8-31.1
			c15-14.1-0.2-42.3-0.3-42.6c-0.2-0.3,0-0.6,0.2-0.8c0.3-0.1,0.6-0.1,0.8,0.2c0.2,0.3,15.8,29.3,0.1,44c-8.5,7.9-17.3,20.5-14.5,30
			c1.6,5.5,7.1,9.1,16.1,10.7c0.3,0.1,0.5,0.3,0.5,0.7C79.6,226,79.3,226.2,79.1,226.2z"/>
		
			<ellipse transform="matrix(0.999 4.568761e-002 -4.568761e-002 0.999 4.4293 -3.5114)" class="st6" cx="79" cy="95.1" rx="34.7" ry="39.1"/>
		<polygon class="st7" points="77.2,130.1 69.6,149 85.3,147.5 		"/>
		<path class="st7" d="M58.7,63.7c0,0-25.8,75.8,47.4,55.4c0,0-22.3,31-50.2,5.4C55.9,124.6,28.3,94.4,58.7,63.7z"/>
		<path class="st3" d="M86.2,62.6c0,0,16,12,18.2,38.3C104.4,100.9,113.1,68.6,86.2,62.6z"/>
	</g>
</g>
<g id="DESIGNED_BY_FREEPIK_1_">
</g>
</svg>
