<?xml version="1.0" encoding="utf-8"?>
<!-- Generator: Adobe Illustrator 19.1.1, SVG Export Plug-In . SVG Version: 6.00 Build 0)  -->
<svg version="1.1" id="Capa_1" xmlns="http://www.w3.org/2000/svg" xmlns:xlink="http://www.w3.org/1999/xlink" x="0px" y="0px"
	 viewBox="-49 141 512 512" style="enable-background:new -49 141 512 512;" xml:space="preserve">
<style type="text/css">
	.st0{fill:#DD2E44;}
	.st1{fill:#EA596E;}
	.st2{fill:#A0041E;}
	.st3{fill:#45B1E8;}
	.st4{fill:#A85AD4;}
	.st5{fill:#68CFC9;}
	.st6{fill:#FFCC4D;}
</style>
<path class="st0" d="M116.3,243.4c-1.6,1.6-2.8,3.5-3.8,5.6l-0.1-0.1L-47.1,608.2l0.2,0.2c-3,5.7,2,17.4,12.1,27.5
	C-24.7,646-13,651-7.3,648l0.1,0.1l359.4-159.5l-0.1-0.1c2.1-1,4-2.2,5.6-3.8c22.2-22.2-13.8-94.3-80.5-160.9
	C210.6,257.2,138.6,221.1,116.3,243.4"/>
<path class="st1" d="M135.9,307.5l-179,291.6l-4,9l0.2,0.1c-3,5.7,2,17.4,12.1,27.5c3.3,3.3,6.7,5.8,10.1,7.9l217.5-265.2
	L135.9,307.5z"/>
<path class="st2" d="M278.3,322.7c66.4,66.4,103.3,137.3,82.3,158.2c-20.9,21-91.8-15.9-158.2-82.3
	C135.9,332.1,99.1,261.3,120,240.3C141,219.4,211.8,256.3,278.3,322.7"/>
<path class="st3" d="M215.4,330.4c-2.8,2.3-6.5,3.5-10.4,3.1c-12.3-1.3-22.7-5.6-30-12.4c-7.7-7.2-11.5-16.8-10.5-26.5
	c1.8-17,18.8-32.5,47.8-29.4c11.3,1.2,16.3-2.4,16.5-4.1c0.2-1.7-3.9-6.3-15.2-7.6c-12.4-1.3-22.7-5.6-30-12.4
	c-7.7-7.2-11.5-16.8-10.5-26.5c1.8-17,18.8-32.5,47.8-29.4c8.2,0.9,12.5-0.8,14.4-1.9c1.5-0.9,2.1-1.8,2.1-2.2
	c0.2-1.7-3.9-6.3-15.2-7.6c-7.8-0.9-13.5-7.9-12.6-15.7c0.8-7.8,7.8-13.5,15.7-12.6c29,3.1,42.3,21.9,40.4,38.9
	c-1.8,17-18.8,32.5-47.8,29.4c-8.2-0.9-12.5,0.8-14.4,1.9c-1.5,0.9-2.1,1.8-2.1,2.2c-0.2,1.7,3.9,6.4,15.2,7.6
	c29,3.1,42.3,21.9,40.4,38.9c-1.8,17-18.8,32.5-47.8,29.4c-8.2-0.9-12.5,0.8-14.4,1.9c-1.5,0.9-2,1.8-2.1,2.2
	c-0.2,1.7,3.9,6.3,15.2,7.6c7.8,0.9,13.5,7.9,12.6,15.7C220.2,324.8,218.2,328.1,215.4,330.4"/>
<path class="st4" d="M387.1,461.9c28.1-7.9,47.4,4.6,52,21c4.6,16.4-5.4,37.2-33.4,45.1c-11,3.1-14.2,8.3-13.8,10
	c0.5,1.7,6,4.4,17,1.3c28-7.9,47.4,4.6,52,21c4.7,16.4-5.4,37.2-33.4,45.1c-10.9,3.1-14.2,8.3-13.8,10c0.5,1.7,6,4.4,17,1.4
	c7.6-2.1,15.4,2.3,17.5,9.8c2.1,7.6-2.3,15.4-9.9,17.5c-28,7.9-47.4-4.6-52-21c-4.6-16.4,5.4-37.2,33.5-45.1
	c10.9-3.1,14.2-8.3,13.8-10c-0.5-1.7-6-4.4-16.9-1.4c-28.1,7.9-47.4-4.6-52-21c-4.6-16.4,5.4-37.2,33.5-45.1
	c10.9-3.1,14.2-8.3,13.7-10c-0.5-1.7-6-4.5-17-1.4c-7.6,2.1-15.4-2.3-17.5-9.8C375.1,471.9,379.5,464.1,387.1,461.9"/>
<path class="st3" d="M278.1,423.6c-4.2,0-8.3-1.8-11.1-5.3c-4.9-6.1-3.9-15.1,2.2-20c3.1-2.5,77.1-60.6,181.6-45.6
	c7.8,1.1,13.2,8.3,12.1,16.1c-1.1,7.8-8.2,13.2-16.1,12.1c-92.3-13.1-159.1,39.2-159.8,39.7C284.4,422.6,281.2,423.6,278.1,423.6"/>
<path class="st4" d="M32.8,364.4c-1.4,0-2.7-0.2-4.1-0.6c-7.5-2.3-11.8-10.2-9.5-17.7C35.3,292.4,49.9,206.8,32,184.5
	c-2-2.5-5-5-12-4.5C6.7,181,7.9,209.2,8,209.5c0.6,7.8-5.3,14.7-13.1,15.2c-8,0.5-14.7-5.3-15.2-13.1c-1.5-19.6,4.6-57.4,38.3-59.9
	c15-1.1,27.5,4.1,36.3,15c33.7,42-0.5,163.6-7.7,187.6C44.6,360.4,39,364.4,32.8,364.4"/>
<path class="st4" d="M335,272c0,11.8-9.6,21.3-21.3,21.3s-21.3-9.6-21.3-21.3s9.6-21.3,21.3-21.3C325.4,250.6,335,260.2,335,272"/>
<path class="st3" d="M7.9,392.9c0,15.7-12.7,28.4-28.4,28.4S-49,408.6-49,392.9c0-15.7,12.7-28.4,28.4-28.4S7.9,377.1,7.9,392.9"/>
<g>
	<path class="st5" d="M434.6,414.2c0,11.8-9.6,21.3-21.3,21.3s-21.3-9.6-21.3-21.3s9.6-21.3,21.3-21.3S434.6,402.4,434.6,414.2"/>
	<path class="st5" d="M306.6,584.9c0,11.8-9.6,21.3-21.3,21.3s-21.3-9.6-21.3-21.3s9.6-21.3,21.3-21.3
		C297,563.5,306.6,573.1,306.6,584.9"/>
</g>
<g>
	<path class="st6" d="M377.7,193.8c0,15.7-12.7,28.4-28.4,28.4c-15.7,0-28.4-12.7-28.4-28.4c0-15.7,12.7-28.4,28.4-28.4
		C364.9,165.3,377.7,178,377.7,193.8"/>
	<path class="st6" d="M434.6,257.7c0,11.8-9.6,21.3-21.3,21.3s-21.3-9.6-21.3-21.3c0-11.8,9.6-21.3,21.3-21.3
		C425,236.4,434.6,246,434.6,257.7"/>
	<path class="st6" d="M391.9,314.6c0,11.8-9.6,21.3-21.3,21.3s-21.3-9.6-21.3-21.3s9.6-21.3,21.3-21.3S391.9,302.9,391.9,314.6"/>
	<path class="st6" d="M79,471.1c0,11.8-9.6,21.3-21.3,21.3s-21.3-9.6-21.3-21.3s9.6-21.3,21.3-21.3S79,459.3,79,471.1"/>
</g>
</svg>
